<svg width="640" height="400" viewBox="0 0 640 400" fill="none" xmlns="http://www.w3.org/2000/svg">
  <rect width="640" height="400" rx="24" fill="#EDF3FF"/>
  <path d="M196 88L240 62L290 72L330 56L382 80L416 120L452 154L468 196L450 236L460 284L426 318L380 334L332 312L286 332L248 316L230 286L200 268L178 226L156 186L168 140L196 88Z" fill="#DDE8FF" stroke="#3D6BC9" stroke-width="4" stroke-linejoin="round"/>
  <path d="M256 118L298 104L334 126L364 162L352 198L314 210L272 188L246 156L256 118Z" fill="#F3F6FF" stroke="#3D6BC9" stroke-width="2" stroke-linejoin="round" opacity="0.7"/>
</svg>
